<svg xmlns="http://www.w3.org/2000/svg" width="113.864" height="36.4" viewBox="0 0 113.864 36.4"><g transform="translate(-131 -741.6)"><path d="M3.02-6.95H.75V0H3.02C5.25,0,6.71-1.31,6.71-3.45A3.366,3.366,0,0,0,3.02-6.95ZM1.89-.93V-6.02H3.02A2.319,2.319,0,0,1,5.54-3.45,2.286,2.286,0,0,1,3.02-.93Zm8.12-3.71a1.431,1.431,0,0,1,1.54,1.39H8.5A1.5,1.5,0,0,1,10.01-4.64Zm2.58,3H11.36a1.334,1.334,0,0,1-1.3.77A1.516,1.516,0,0,1,8.49-2.33H12.7a3.517,3.517,0,0,0,.04-.56A2.57,2.57,0,0,0,10.06-5.6,2.639,2.639,0,0,0,7.31-2.76,2.673,2.673,0,0,0,10.06.09,2.518,2.518,0,0,0,12.59-1.64Zm.47-3.87L15.15,0h1.36l2.1-5.51H17.4L15.84-1.02,14.28-5.51Zm8.58.87a1.431,1.431,0,0,1,1.54,1.39H20.13A1.5,1.5,0,0,1,21.64-4.64Zm2.58,3H22.99a1.334,1.334,0,0,1-1.3.77,1.516,1.516,0,0,1-1.57-1.46h4.21a3.517,3.517,0,0,0,.04-.56A2.57,2.57,0,0,0,21.69-5.6a2.639,2.639,0,0,0-2.75,2.84A2.673,2.673,0,0,0,21.69.09,2.518,2.518,0,0,0,24.22-1.64ZM25.34,0h1.14V-7.4H25.34Zm7.74-2.76A2.717,2.717,0,0,0,30.27-5.6a2.717,2.717,0,0,0-2.81,2.84A2.686,2.686,0,0,0,30.22.09,2.76,2.76,0,0,0,33.08-2.76Zm-4.46,0a1.641,1.641,0,0,1,1.63-1.85,1.667,1.667,0,0,1,1.66,1.85A1.7,1.7,0,0,1,30.22-.9,1.63,1.63,0,0,1,28.62-2.76ZM35.2-4.7v-.81H34.06V2.62H35.2V-.8a2.491,2.491,0,0,0,1.92.89,2.659,2.659,0,0,0,2.59-2.87A2.615,2.615,0,0,0,37.12-5.6,2.4,2.4,0,0,0,35.2-4.7Zm3.35,1.92A1.737,1.737,0,0,1,36.87-.9,1.718,1.718,0,0,1,35.2-2.76a1.714,1.714,0,0,1,1.67-1.85A1.692,1.692,0,0,1,38.55-2.78ZM48.5,0h1.13V-3.25A2.153,2.153,0,0,0,47.36-5.6a2.157,2.157,0,0,0-1.92,1.09A2.125,2.125,0,0,0,43.46-5.6a2.1,2.1,0,0,0-1.63.72v-.63H40.69V0h1.14V-3.08a1.336,1.336,0,0,1,1.39-1.53c.83,0,1.38.52,1.38,1.53V0h1.13V-3.08a1.336,1.336,0,0,1,1.39-1.53c.83,0,1.38.52,1.38,1.53Zm4.75-4.64a1.431,1.431,0,0,1,1.54,1.39H51.74A1.5,1.5,0,0,1,53.25-4.64Zm2.58,3H54.6a1.334,1.334,0,0,1-1.3.77,1.516,1.516,0,0,1-1.57-1.46h4.21a3.516,3.516,0,0,0,.04-.56A2.57,2.57,0,0,0,53.3-5.6a2.639,2.639,0,0,0-2.75,2.84A2.673,2.673,0,0,0,53.3.09,2.518,2.518,0,0,0,55.83-1.64ZM60.86,0h1.13V-3.25A2.146,2.146,0,0,0,59.73-5.6a2.12,2.12,0,0,0-1.64.72v-.63H56.95V0h1.14V-3.08a1.336,1.336,0,0,1,1.39-1.53c.83,0,1.38.52,1.38,1.53Zm2.61-1.53c0,1.12.61,1.53,1.59,1.53h.9V-.95h-.7c-.48,0-.64-.17-.64-.58V-4.58h1.34v-.93H64.62V-6.88H63.47v1.37h-.65v.93h.65Zm9.76-.46c0,.67-.47,1.06-1.24,1.06H70.45V-3.1h1.5A1.128,1.128,0,0,1,73.23-1.99Zm-.18-3.03c0,.64-.45.99-1.19.99H70.45V-6.02h1.41C72.6-6.02,73.05-5.65,73.05-5.02Zm1.32,3.15a1.729,1.729,0,0,0-1.34-1.7,1.626,1.626,0,0,0,1.18-1.59c0-.98-.78-1.79-2.25-1.79H69.31V0h2.78C73.51,0,74.37-.81,74.37-1.87Zm3.26.56-1.55-4.2H74.81L76.98-.09,75.86,2.59h1.18l3.38-8.1H79.24Z" transform="translate(147 749)" fill="#fff"/><g transform="translate(-558.773 288.576)"><path d="M705.1,502.937a6.7,6.7,0,1,0,0,5.144H707.4c-.983,3.723-4.272,6.228-8.612,6.228-5.29,0-9.019-3.723-9.019-8.8s3.73-8.8,9.019-8.8c4.34,0,7.629,2.5,8.612,6.228Z" transform="translate(0 -24.885)" fill="#fff"/><path d="M788.18,514.309c-5.29,0-9.019-3.723-9.019-8.8s3.73-8.8,9.019-8.8,9.019,3.723,9.019,8.8S793.47,514.309,788.18,514.309Zm6.714-8.8a6.713,6.713,0,1,0-6.714,6.7A6.439,6.439,0,0,0,794.894,505.509Z" transform="translate(-70.1 -24.885)" fill="#fff"/><path d="M870.091,480.793a8.27,8.27,0,0,1,8.513-8.631,7.41,7.41,0,0,1,6.851,3.817h.066V465.424h2.228v15.27c0,5.211-3.625,8.73-8.812,8.73S870.091,485.772,870.091,480.793Zm15.43,0a6.584,6.584,0,1,0-6.584,6.573A6.315,6.315,0,0,0,885.521,480.793Z" transform="translate(-141.409 0)" fill="#fff"/><path d="M966.289,506.253a6.363,6.363,0,0,0,6.68,5.957,6.237,6.237,0,0,0,5.764-3.012h2.475a8.582,8.582,0,0,1-8.239,5.111c-5.29,0-9.019-3.723-9.019-8.8s3.73-8.8,9.019-8.8a8.54,8.54,0,0,1,8.951,8.8v.744Zm.068-2.1v.068h13.19v-.068a6.74,6.74,0,0,0-13.19,0Z" transform="translate(-215.014 -24.885)" fill="#fff"/><path d="M1069.9,502.937a6.7,6.7,0,1,0,0,5.144h2.306c-.983,3.723-4.272,6.228-8.612,6.228-5.29,0-9.019-3.723-9.019-8.8s3.73-8.8,9.019-8.8c4.34,0,7.629,2.5,8.612,6.228Z" transform="translate(-286.082 -24.885)" fill="#fff"/><path d="M1149.506,489.424v-24h2.269v14.738h.068l8.8-7.437h3.183l-9.651,8.113,9.99,8.586h-3.217l-9.109-7.91h-.068v7.91Z" transform="translate(-360.532 0)" fill="#fff"/></g></g></svg>