<svg xmlns="http://www.w3.org/2000/svg" width="113.864" height="36.4" viewBox="0 0 113.864 36.4">
  <g id="Group_2475" data-name="Group 2475" transform="translate(-131 -741.6)">
    <path id="Path_7782" data-name="Path 7782" d="M1.89-4.69V-7.4H.75V0H1.89V-.8A2.342,2.342,0,0,0,3.81.09,2.659,2.659,0,0,0,6.4-2.78,2.609,2.609,0,0,0,3.81-5.6,2.356,2.356,0,0,0,1.89-4.69ZM5.24-2.78A1.737,1.737,0,0,1,3.56-.9,1.718,1.718,0,0,1,1.89-2.76,1.714,1.714,0,0,1,3.56-4.61,1.692,1.692,0,0,1,5.24-2.78ZM9.55-1.31,8-5.51H6.73L8.9-.09,7.78,2.59H8.96l3.38-8.1H11.16Z" transform="translate(182 749)" fill="#fff"/>
    <path id="Path_5" data-name="Path 5" d="M705.1,502.937a6.7,6.7,0,1,0,0,5.144H707.4c-.983,3.723-4.272,6.228-8.612,6.228-5.29,0-9.019-3.723-9.019-8.8s3.73-8.8,9.019-8.8c4.34,0,7.629,2.5,8.612,6.228Z" transform="translate(-558.773 263.691)" fill="#fff"/>
    <path id="Path_6" data-name="Path 6" d="M788.18,514.309c-5.29,0-9.019-3.723-9.019-8.8s3.73-8.8,9.019-8.8,9.019,3.723,9.019,8.8S793.47,514.309,788.18,514.309Zm6.714-8.8a6.713,6.713,0,1,0-6.714,6.7A6.439,6.439,0,0,0,794.894,505.509Z" transform="translate(-628.873 263.691)" fill="#fff"/>
    <path id="Path_7" data-name="Path 7" d="M870.091,480.793a8.27,8.27,0,0,1,8.513-8.631,7.41,7.41,0,0,1,6.851,3.817h.066V465.424h2.228v15.27c0,5.211-3.625,8.73-8.812,8.73S870.091,485.772,870.091,480.793Zm15.43,0a6.584,6.584,0,1,0-6.584,6.573A6.315,6.315,0,0,0,885.521,480.793Z" transform="translate(-700.182 288.576)" fill="#fff"/>
    <path id="Path_8" data-name="Path 8" d="M966.289,506.253a6.363,6.363,0,0,0,6.68,5.957,6.237,6.237,0,0,0,5.764-3.012h2.475a8.582,8.582,0,0,1-8.239,5.111c-5.29,0-9.019-3.723-9.019-8.8s3.73-8.8,9.019-8.8a8.54,8.54,0,0,1,8.951,8.8v.744Zm.068-2.1v.068h13.19v-.068a6.74,6.74,0,0,0-13.19,0Z" transform="translate(-773.787 263.691)" fill="#fff"/>
    <path id="Path_9" data-name="Path 9" d="M1069.9,502.937a6.7,6.7,0,1,0,0,5.144h2.306c-.983,3.723-4.272,6.228-8.612,6.228-5.29,0-9.019-3.723-9.019-8.8s3.73-8.8,9.019-8.8c4.34,0,7.629,2.5,8.612,6.228Z" transform="translate(-844.855 263.691)" fill="#fff"/>
    <path id="Path_10" data-name="Path 10" d="M1149.506,489.424v-24h2.269v14.738h.068l8.8-7.437h3.183l-9.651,8.113,9.99,8.586h-3.217l-9.109-7.91h-.068v7.91Z" transform="translate(-919.305 288.576)" fill="#fff"/>
  </g>
</svg>
