<svg xmlns="http://www.w3.org/2000/svg" xmlns:xlink="http://www.w3.org/1999/xlink" width="643.96" height="62.791" viewBox="0 0 643.96 62.791"><defs><linearGradient id="a" y1="0.5" x2="1" y2="0.5" gradientUnits="objectBoundingBox"><stop offset="0.452" stop-color="#fbba00"/><stop offset="1" stop-color="#fcea0d"/></linearGradient></defs><g transform="translate(-638 -509)"><g transform="translate(0 79)"><g transform="translate(3663.461 -292.106)"><circle cx="11.03" cy="11.03" r="11.03" transform="translate(-3025.461 762.715)" fill="#225cff"/><path d="M-2909.2,768.262l-23.421-39.371a10.858,10.858,0,0,0-4.287-5.068h0a10.883,10.883,0,0,0-8.388-1.341c-.194.045-.385.106-.578.162-.107.033-.217.059-.324.1a10.939,10.939,0,0,0-2.208,1,10.878,10.878,0,0,0-4.306,4.759l-15.4,24.61-15.21-25.568a10.925,10.925,0,0,0-14.98-3.8,10.925,10.925,0,0,0-3.8,14.972l24.227,40.726a10.925,10.925,0,0,0,14.98,3.8,10.924,10.924,0,0,0,2.029-1.569,10.94,10.94,0,0,0,2.292-2.612L-2943,754.174l15.026,25.259a10.925,10.925,0,0,0,14.98,3.8A10.926,10.926,0,0,0-2909.2,768.262Z" fill="#225cff"/></g><g transform="translate(-1 -985.83)"><circle cx="11.03" cy="11.03" r="11.03" transform="translate(639 1456.38)" fill="url(#a)"/><g transform="translate(-479.656 1176.22)"><path d="M1234.921,285.707l-23.42-39.371a10.865,10.865,0,0,0-4.288-5.068h0a10.888,10.888,0,0,0-8.388-1.34c-.194.045-.386.106-.578.162-.108.033-.217.059-.324.1a10.856,10.856,0,0,0-6.514,5.755l-15.4,24.61L1160.8,244.981a10.925,10.925,0,1,0-18.779,11.171l24.226,40.726a11.616,11.616,0,0,0,19.3-.38l15.568-24.879,15.026,25.259a10.925,10.925,0,1,0,18.779-11.171Z" fill="url(#a)"/></g></g></g><g transform="translate(3663.461 -213.106)"><path d="M-2881.045,754.221a32.741,32.741,0,0,1,33.257-32.064,33.742,33.742,0,0,1,21.363,6.89,5.9,5.9,0,0,0,7.352.077,34.53,34.53,0,0,1,20.709-7.006c19.131,0,32.68,12.933,32.68,32.064v24.827a5.774,5.774,0,0,1-5.774,5.774h-4.927a5.774,5.774,0,0,1-5.774-5.774V754.221c0-14.166-14.973-22.672-30.408-11.933a5.934,5.934,0,0,0-2.579,4.811v31.949a5.774,5.774,0,0,1-5.774,5.774h-4.927a5.774,5.774,0,0,1-5.774-5.774V747.1a5.774,5.774,0,0,0-2.579-4.811c-15.4-10.739-30.409-2.194-30.409,11.933v24.827a5.774,5.774,0,0,1-5.774,5.774h-4.888a5.774,5.774,0,0,1-5.774-5.774Z" fill="#fff"/><path d="M-2752.24,752.739V730.36a8.252,8.252,0,0,1,8.237-8.241h0a8.252,8.252,0,0,1,8.241,8.241v21.417a17.321,17.321,0,0,0,16.971,17.665,17.228,17.228,0,0,0,2.248-.1,16.14,16.14,0,0,0,13.75-16.551V730.36a8.252,8.252,0,0,1,8.249-8.241h0a8.253,8.253,0,0,1,8.241,8.241v22.379a32.766,32.766,0,0,1-33.277,32.084C-2738.683,784.861-2752.24,771.882-2752.24,752.739Z" fill="#fff"/><path d="M-2671.413,777.747a7.1,7.1,0,0,1,7.094-7.1h34.851a4.931,4.931,0,0,0,5.131-4.722c.006-.136.006-.273,0-.409a4.839,4.839,0,0,0-4.868-4.809c-.086,0-.173,0-.259.009h-24.427a19.223,19.223,0,0,1-19.3-19.15V741.4a19.631,19.631,0,0,1,19.3-19.3h30.305a7.1,7.1,0,0,1,7.1,7.094v.008h0a7.1,7.1,0,0,1-7.094,7.1H-2652a5.294,5.294,0,0,0-5.435,5.147,5.351,5.351,0,0,0,.046.85,4.861,4.861,0,0,0,5,3.945h24.427a19.028,19.028,0,0,1,19.3,18.754q0,.272,0,.543a19.855,19.855,0,0,1-19.3,19.3h-36.352a7.1,7.1,0,0,1-7.1-7.094v-.008Z" fill="#fff"/><path d="M-2547.576,784.823V778.2a24.538,24.538,0,0,1-17.841,6.624c-18.141,0-30.794-12.644-30.794-31.352a32.245,32.245,0,0,1,33.129-31.335,32.236,32.236,0,0,1,10.953,2.243,33.008,33.008,0,0,1,20.362,30.975v25.706a3.775,3.775,0,0,1-3.765,3.764Zm-.262-31.279a16.727,16.727,0,0,0-15.62-16.448,15.832,15.832,0,0,0-16.59,15.035,15.749,15.749,0,0,0,.039,2.128,16.86,16.86,0,0,0,16.07,15.621,15.81,15.81,0,0,0,16.1-15.509q.007-.414-.006-.827Z" fill="#fff"/><path d="M-2510.188,722.119h0a7.7,7.7,0,0,1,7.256,5.047l13.407,36.125a1.724,1.724,0,0,0,2.217,1.016,1.725,1.725,0,0,0,1.016-1.016l13.407-36.125a7.758,7.758,0,0,1,7.26-5.047h0a7.753,7.753,0,0,1,7.739,7.766,7.749,7.749,0,0,1-.561,2.881l-19.049,47.207a7.764,7.764,0,0,1-7.179,4.85h-6.428a7.763,7.763,0,0,1-7.179-4.85l-19.081-47.168a7.773,7.773,0,0,1,4.291-10.119A7.793,7.793,0,0,1-2510.188,722.119Z" fill="#fff"/><path d="M-2384.955,722.12c3.334,0,3.454,2.7,3.454,6.036v7.668a2,2,0,0,1-2,2h-2.814a7.433,7.433,0,0,0-7.853,6.988,7.745,7.745,0,0,0,0,.865v33.184a6.035,6.035,0,0,1-6.035,6.035h-4.808a6.035,6.035,0,0,1-6.035-6.035h0l-.008-33.223a22.63,22.63,0,0,1,21.7-23.519" fill="#fff"/><path d="M-2444.682,734.256a10.6,10.6,0,0,1,8.94-12.027,10.6,10.6,0,0,1,4.232.233,10.068,10.068,0,0,1,6.982,6.783,10.412,10.412,0,0,1-6.635,13.145,10.414,10.414,0,0,1-13.146-6.636,10.542,10.542,0,0,1-.373-1.505Z" fill="#fff"/><path d="M-2434.27,748.773h0a8.468,8.468,0,0,1,8.441,8.441v19.168a8.467,8.467,0,0,1-8.441,8.441h0a8.468,8.468,0,0,1-8.442-8.441V757.253A8.469,8.469,0,0,1-2434.27,748.773Z" fill="#fff"/></g></g></svg>